<svg xmlns="http://www.w3.org/2000/svg" width="420" height="420" viewBox="0 0 420 420" role="img" aria-label="Payment QR Placeholder">
  <rect width="420" height="420" rx="20" fill="#f8f8f8"/>
  <rect x="30" y="30" width="360" height="360" rx="12" fill="#ffffff" stroke="#1f3b44" stroke-width="8"/>
  <g fill="#1f3b44">
    <rect x="60" y="60" width="90" height="90"/>
    <rect x="75" y="75" width="60" height="60" fill="#fff"/>
    <rect x="90" y="90" width="30" height="30"/>
    <rect x="270" y="60" width="90" height="90"/>
    <rect x="285" y="75" width="60" height="60" fill="#fff"/>
    <rect x="300" y="90" width="30" height="30"/>
    <rect x="60" y="270" width="90" height="90"/>
    <rect x="75" y="285" width="60" height="60" fill="#fff"/>
    <rect x="90" y="300" width="30" height="30"/>
    <rect x="190" y="190" width="20" height="20"/>
    <rect x="220" y="190" width="20" height="20"/>
    <rect x="250" y="190" width="20" height="20"/>
    <rect x="190" y="220" width="20" height="20"/>
    <rect x="250" y="220" width="20" height="20"/>
    <rect x="190" y="250" width="20" height="20"/>
    <rect x="220" y="250" width="20" height="20"/>
    <rect x="280" y="250" width="20" height="20"/>
    <rect x="220" y="280" width="20" height="20"/>
    <rect x="250" y="280" width="20" height="20"/>
  </g>
  <text x="210" y="405" text-anchor="middle" fill="#1f3b44" font-family="Arial, sans-serif" font-size="20">Sample Payment QR</text>
</svg>
